<svg version="1.1" xmlns="http://www.w3.org/2000/svg"
     viewBox="0 0 320 320" width="64px" height="64px">
  <link xmlns="http://www.w3.org/1999/xhtml" rel="stylesheet" href="fliesenlack.css"/>
  
  <g>
    <g id="center" class="bg">
      <path d="M225,0A97,97,100,0,1,66,66,97,97,0,0,0,97,0"/>
      <path d="M0,225A97,97,100,0,0,70,70A97,97,90,0,1,0,97"/>
    <path d="M96,320A223,223,0,0,1,320,96L320,225A97,97,0,0,0,225,320z"/>
      <!-- <path d="M0,225A97,97,100,0,0,66,66A97,97,90,0,1,0,97"/> -->
      <!-- <path d="M66,66A97,97,0,0,1,0,97" stroke="red"/> -->
    </g>

    <g id="lines" class="out">
      <circle cx="0" cy="0" r="97"/>
      <circle cx="320" cy="320" r="97"/>
      <circle cx="320" cy="320" r="223"/>

      <path d="M225,0A97,97,100,0,1,66,66"/>
      <path d="M0,225A97,97,100,0,0,66,66"/>
      <path d="M64,196A320,320,90,0,1,96,320"/>
      <path d="M196,64A320,320,0,0,0,320,96"/>
    </g>
  </g>
</svg>
